<?xml version="1.0" encoding="utf-8"?>
<!-- Generator: Adobe Illustrator 15.0.0, SVG Export Plug-In . SVG Version: 6.00 Build 0)  -->
<!DOCTYPE svg PUBLIC "-//W3C//DTD SVG 1.1//EN" "http://www.w3.org/Graphics/SVG/1.1/DTD/svg11.dtd">
<svg version="1.1" id="图层_1" xmlns="http://www.w3.org/2000/svg" xmlns:xlink="http://www.w3.org/1999/xlink" x="0px" y="0px"
	 width="300px" height="300px" viewBox="0 0 300 300" enable-background="new 0 0 300 300" xml:space="preserve">
<g>
	
		<radialGradient id="SVGID_1_" cx="-82.2979" cy="541.7275" r="143.7251" gradientTransform="matrix(1.0285 0 0 1.0285 234.8235 -397.2674)" gradientUnits="userSpaceOnUse">
		<stop  offset="0.736" style="stop-color:#140C00"/>
		<stop  offset="0.9494" style="stop-color:#FFFFFF"/>
	</radialGradient>
	<path fill-rule="evenodd" clip-rule="evenodd" fill="url(#SVGID_1_)" d="M150.18,12.077C231.594,12.077,298,78.48,298,159.893
		c0,81.424-66.406,147.83-147.82,147.83c-81.417,0-147.82-66.406-147.82-147.83C2.36,78.48,68.762,12.077,150.18,12.077
		L150.18,12.077z"/>
	
		<linearGradient id="SVGID_2_" gradientUnits="userSpaceOnUse" x1="-80.2959" y1="663.6152" x2="-80.2959" y2="385.1241" gradientTransform="matrix(1 0 0 1 230.4761 -383.2646)">
		<stop  offset="0" style="stop-color:#8A7550"/>
		<stop  offset="0.5" style="stop-color:#D9C39E"/>
		<stop  offset="1" style="stop-color:#E3D1B1"/>
	</linearGradient>
	<path fill="url(#SVGID_2_)" d="M150.182,4c75.525,0,137.131,61.601,137.131,137.131c0,75.531-61.605,137.137-137.131,137.137
		c-75.532,0-137.134-61.605-137.134-137.137C13.048,65.601,74.65,4,150.182,4L150.182,4z"/>
	
		<linearGradient id="SVGID_3_" gradientUnits="userSpaceOnUse" x1="-80.2949" y1="658.9336" x2="-80.2949" y2="387.7581" gradientTransform="matrix(1 0 0 1 230.4761 -382.3477)">
		<stop  offset="0" style="stop-color:#EBCC96"/>
		<stop  offset="0.25" style="stop-color:#AD8B51"/>
		<stop  offset="0.32" style="stop-color:#917544"/>
		<stop  offset="0.4" style="stop-color:#876D40"/>
		<stop  offset="0.49" style="stop-color:#9C7E49"/>
		<stop  offset="0.62" style="stop-color:#F0CC8D"/>
		<stop  offset="1" style="stop-color:#FCEED6"/>
	</linearGradient>
	<path fill="url(#SVGID_3_)" d="M150.182,7.548c73.576,0,133.584,60.009,133.584,133.583c0,73.578-60.008,133.586-133.584,133.586
		c-73.577,0-133.585-60.008-133.585-133.586C16.597,67.557,76.604,7.548,150.182,7.548L150.182,7.548z"/>
	
		<linearGradient id="SVGID_4_" gradientUnits="userSpaceOnUse" x1="-80.2974" y1="397.8047" x2="-80.2974" y2="641.4247" gradientTransform="matrix(1 0 0 1 230.4761 -378.8066)">
		<stop  offset="0" style="stop-color:#AD9977"/>
		<stop  offset="0.5" style="stop-color:#E0CAA3"/>
		<stop  offset="1" style="stop-color:#FFEDCF"/>
	</linearGradient>
	<path fill="url(#SVGID_4_)" d="M150.182,21.252c66.025,0,119.875,53.853,119.875,119.878c0,66.027-53.85,119.881-119.875,119.881
		c-66.028,0-119.881-53.854-119.881-119.881C30.301,75.105,84.153,21.252,150.182,21.252L150.182,21.252z"/>
	<linearGradient id="SVGID_5_" gradientUnits="userSpaceOnUse" x1="150.1802" y1="22.8901" x2="150.1802" y2="259.0914">
		<stop  offset="0" style="stop-color:#000000"/>
		<stop  offset="1" style="stop-color:#424242"/>
	</linearGradient>
	<path fill-rule="evenodd" clip-rule="evenodd" fill="url(#SVGID_5_)" d="M150.18,24.707c64.123,0,116.424,52.302,116.424,116.424
		c0,64.121-52.301,116.424-116.424,116.424c-64.125,0-116.423-52.303-116.423-116.424C33.757,77.009,86.055,24.707,150.18,24.707
		L150.18,24.707z"/>
	<linearGradient id="SVGID_6_" gradientUnits="userSpaceOnUse" x1="150.1812" y1="165.7158" x2="150.1812" y2="27.5159">
		<stop  offset="0" style="stop-color:#272727"/>
		<stop  offset="1" style="stop-color:#C1C1C1"/>
	</linearGradient>
	<path fill-rule="evenodd" clip-rule="evenodd" fill="url(#SVGID_6_)" d="M150.18,164.727c-81.144,0-96.661-44.494-90.141-74.497
		c3.876-17.834,20.459-37.23,36.198-46.619c14.729-8.782,33.52-14.255,53.943-14.255c20.422,0,39.213,5.473,53.943,14.255
		c15.742,9.389,32.318,28.785,36.199,46.619C246.844,120.232,231.322,164.727,150.18,164.727L150.18,164.727z"/>
	<path fill="#EDD5AD" d="M68.873,190.826l-11.012,6.359l-2.384-4.135l11.013-6.354L68.873,190.826z M57.99,181.152l-6.835,3.043
		l0.765,1.707l6.833-3.035L57.99,181.152z M51.679,161.109l-7.312,1.555l0.391,1.832l7.312-1.549L51.679,161.109z M54.308,171.293
		l-7.111,2.311l0.582,1.789l7.11-2.309L54.308,171.293z M50.131,150.701l-7.435,0.783l0.196,1.869l7.435-0.783L50.131,150.701z
		 M50.329,129.699l-7.439-0.786l-0.196,1.867l7.439,0.776L50.329,129.699z M54.919,138.748H42.202v4.77h12.717V138.748z
		 M94.127,48.811l6.357,11.014l4.128-2.384l-6.356-11.013L94.127,48.811z M91.861,59.276L87.47,53.22l-1.521,1.11l4.396,6.047
		L91.861,59.276z M52.07,119.324l-7.315-1.562l-0.39,1.837l7.314,1.553L52.07,119.324z M85.952,227.936l1.521,1.104l4.391-6.049
		l-1.513-1.104L85.952,227.936z M69.308,212.688l1.256,1.395l5.557-5.006l-1.251-1.396L69.308,212.688z M68.324,199.441
		l-6.053,4.398l1.105,1.518l6.048-4.391L68.324,199.441z M83.626,65.823l-5.003-5.566l-1.395,1.26l5.005,5.553L83.626,65.823z
		 M94.127,233.449l4.129,2.387l6.356-11.016l-4.128-2.385L94.127,233.449z M77.232,220.748l1.393,1.258l5.003-5.559l-1.39-1.26
		L77.232,220.748z M242.369,101.111l6.832-3.041l-0.764-1.715l-6.826,3.04L242.369,101.111z M233.873,95.566l11.01-6.36
		l-2.389-4.131l-11.014,6.36L233.873,95.566z M140.606,41.087l-0.775-7.442l-1.872,0.2l0.781,7.435L140.606,41.087z M232.033,82.818
		l6.057-4.395l-1.109-1.518l-6.051,4.393L232.033,82.818z M54.886,109.189l-7.112-2.319l-0.578,1.788l7.11,2.31L54.886,109.189z
		 M250.227,131.562l7.434-0.781l-0.197-1.867l-7.432,0.778L250.227,131.562z M248.68,121.156l7.309-1.557l-0.385-1.837l-7.318,1.554
		L248.68,121.156z M246.045,110.968l7.117-2.31l-0.58-1.782l-7.115,2.304L246.045,110.968z M68.873,91.436l-11.012-6.357
		l-2.384,4.127l11.013,6.36L68.873,91.436z M58.749,99.403l-6.833-3.051l-0.762,1.721l6.831,3.038L58.749,99.403z M69.424,81.303
		l-6.05-4.397l-1.105,1.518l6.053,4.391L69.424,81.303z M76.12,73.193l-5.556-5.015l-1.259,1.406l5.558,4.996L76.12,73.193z
		 M120.01,45.263l-2.305-7.116l-1.785,0.585l2.307,7.109L120.01,45.263z M130.198,42.636l-1.549-7.318l-1.838,0.391l1.553,7.313
		L130.198,42.636z M245.473,173.078l7.117,2.314l0.572-1.789l-7.117-2.305L245.473,173.078z M216.732,65.815l1.389,1.258l5.01-5.556
		l-1.398-1.257L216.732,65.815z M231.053,69.581l-1.256-1.398l-5.564,5.003l1.256,1.395L231.053,69.581z M216.732,216.443l5,5.563
		l1.398-1.26l-5.004-5.555L216.732,216.443z M195.744,57.441l4.131,2.384l6.357-11.014l-4.129-2.383L195.744,57.441z
		 M224.238,209.076l5.559,5.01l1.256-1.402l-5.557-5.004L224.238,209.076z M208.498,222.984l4.393,6.057l1.52-1.107l-4.395-6.043
		L208.498,222.984z M208.492,59.269l1.52,1.109l4.398-6.05l-1.52-1.103L208.492,59.269z M241.611,182.859l6.834,3.051l0.764-1.719
		l-6.832-3.035L241.611,182.859z M230.938,200.959l6.051,4.398l1.102-1.518l-6.051-4.395L230.938,200.959z M250.031,152.563
		l7.438,0.791l0.201-1.869l-7.443-0.779L250.031,152.563z M245.438,138.748v4.77h12.721v-4.77H245.438z M248.285,162.936
		l7.318,1.561l0.391-1.832l-7.314-1.555L248.285,162.936z M231.48,190.826l11.014,6.359l2.389-4.133l-11.01-6.355L231.48,190.826z
		 M195.744,224.82l6.359,11.016l4.129-2.387l-6.357-11.014L195.744,224.82z M180.348,236.998l2.309,7.121l1.785-0.586l-2.309-7.115
		L180.348,236.998z M137.958,248.418l1.872,0.199l0.781-7.436l-1.867-0.201L137.958,248.418z M147.792,249.105h4.77v-12.715h-4.77
		V249.105z M159.756,241.176l0.773,7.445l1.873-0.203l-0.781-7.432L159.756,241.176z M147.792,45.87h4.77V33.154h-4.77V45.87z
		 M105.402,239.393l1.719,0.76l3.04-6.826l-1.713-0.764L105.402,239.393z M115.92,243.533l1.785,0.584l2.31-7.111l-1.782-0.588
		L115.92,243.533z M126.809,246.555l1.84,0.391l1.555-7.311l-1.833-0.398L126.809,246.555z M170.16,239.625l1.549,7.32l1.84-0.393
		l-1.555-7.313L170.16,239.625z M159.75,41.078l1.865,0.205l0.787-7.442l-1.873-0.19L159.75,41.078z M110.157,48.943l-3.04-6.838
		l-1.717,0.77l3.042,6.83L110.157,48.943z M194.955,42.869l-1.717-0.76l-3.041,6.828l1.715,0.765L194.955,42.869z M180.342,45.255
		l1.783,0.586l2.316-7.112l-1.787-0.582L180.342,45.255z M190.203,233.32l3.039,6.838l1.717-0.766l-3.043-6.83L190.203,233.32z
		 M170.156,42.629l1.832,0.396l1.563-7.317l-1.842-0.388L170.156,42.629z"/>
	<linearGradient id="SVGID_7_" gradientUnits="userSpaceOnUse" x1="150.1812" y1="97.1694" x2="150.1812" y2="31.3807">
		<stop  offset="0" style="stop-color:#FFF8E8"/>
		<stop  offset="1" style="stop-color:#FFFBF2"/>
	</linearGradient>
	<path fill="url(#SVGID_7_)" d="M107.118,42.105l3.04,6.838l-1.715,0.761l-3.042-6.83L107.118,42.105z M94.125,48.811l6.359,11.014
		l4.128-2.384l-6.358-11.013L94.125,48.811z M115.92,38.732l2.307,7.109l1.783-0.575l-2.307-7.119L115.92,38.732z M126.811,35.708
		l1.553,7.313l1.834-0.386l-1.549-7.318L126.811,35.708z M77.228,61.521l5.005,5.552l1.393-1.25l-5.003-5.566L77.228,61.521z
		 M60.039,90.229c-0.105,0.479-0.201,0.96-0.292,1.444l6.74,3.893l2.386-4.13l-7.952-4.588
		C60.578,87.978,60.281,89.108,60.039,90.229z M63.756,79.506l4.563,3.313l1.105-1.512l-4.838-3.522
		C64.297,78.361,64.022,78.935,63.756,79.506z M137.958,33.845l0.779,7.435l1.866-0.187l-0.776-7.448L137.958,33.845z M69.73,69.107
		c-0.122,0.177-0.242,0.355-0.363,0.533l5.495,4.94l1.255-1.387l-5.557-5.015L69.73,69.107z M85.949,54.335l4.396,6.042l1.517-1.096
		l-4.391-6.058L85.949,54.335z M195.744,57.441l4.131,2.384l6.357-11.014l-4.129-2.383L195.744,57.441z M230.637,69.12l-0.84-0.935
		l-5.564,5l1.256,1.398l5.496-4.947C230.869,69.468,230.75,69.292,230.637,69.12z M208.492,59.273l1.52,1.108l4.398-6.051
		l-1.525-1.106L208.492,59.273z M216.732,65.815l1.389,1.258l5.01-5.556l-1.398-1.257L216.732,65.815z M147.792,45.873h4.77V33.154
		h-4.77V45.873z M236.602,79.501c-0.266-0.57-0.549-1.145-0.834-1.717l-4.838,3.515l1.104,1.52L236.602,79.501z M240.322,90.229
		c-0.242-1.121-0.549-2.251-0.885-3.385l-7.957,4.592l2.393,4.13l6.742-3.893C240.514,91.19,240.424,90.708,240.322,90.229z
		 M190.197,48.937l1.715,0.768l3.043-6.835l-1.717-0.76L190.197,48.937z M170.156,42.632l1.832,0.393l1.561-7.317l-1.84-0.388
		L170.156,42.632z M159.75,41.083l1.865,0.199l0.787-7.438l-1.873-0.194L159.75,41.083z M180.342,45.259l1.781,0.582l2.318-7.112
		l-1.787-0.578L180.342,45.259z"/>
</g>
</svg>
