<?xml version="1.0" encoding="utf-8"?>
<!-- Generator: Adobe Illustrator 15.0.0, SVG Export Plug-In . SVG Version: 6.00 Build 0)  -->
<!DOCTYPE svg PUBLIC "-//W3C//DTD SVG 1.1//EN" "http://www.w3.org/Graphics/SVG/1.1/DTD/svg11.dtd">
<svg version="1.1" id="图层_1" xmlns="http://www.w3.org/2000/svg" xmlns:xlink="http://www.w3.org/1999/xlink" x="0px" y="0px"
	 width="68.691px" height="15.669px" viewBox="0 0 68.691 15.669" enable-background="new 0 0 68.691 15.669" xml:space="preserve">
<g>
	<path fill-rule="evenodd" clip-rule="evenodd" fill="#FAF0BB" d="M68.691,8.637l-8.052-4.792c-0.313-0.188-0.713-0.289-1.114-0.294
		L10.948,2.916L7.822,7.837l2.996,5.002l48.579,0.636c0.398,0.006,0.801-0.081,1.121-0.262L68.691,8.637L68.691,8.637z"/>
	<path fill-rule="evenodd" clip-rule="evenodd" fill="#C49E5C" d="M68.691,8.637l-8.176,4.58c-0.317,0.178-0.723,0.265-1.117,0.259
		l-48.583-0.636L7.824,7.838L68.691,8.637L68.691,8.637z"/>
	<path fill-rule="evenodd" clip-rule="evenodd" fill="#B39054" d="M58.764,5.303L19.69,4.79c-0.268-0.005-0.491,0.214-0.495,0.485
		l-0.071,5.421c-0.003,0.271,0.214,0.496,0.484,0.498l39.071,0.513c0.271,0.003,0.493-0.216,0.495-0.483l0.071-5.424
		C59.251,5.529,59.032,5.306,58.764,5.303L58.764,5.303z"/>
	<path fill-rule="evenodd" clip-rule="evenodd" fill="#FFFFFF" d="M58.477,5.758L19.971,5.251c-0.224-0.002-0.327,0.094-0.329,0.319
		l-0.063,4.842c-0.003,0.224,0.09,0.322,0.319,0.328l38.506,0.502c0.23,0.003,0.323-0.087,0.326-0.315l0.063-4.843
		C58.797,5.854,58.704,5.76,58.477,5.758L58.477,5.758z"/>
	
		<linearGradient id="SVGID_1_" gradientUnits="userSpaceOnUse" x1="-525.5313" y1="519.7935" x2="-525.5313" y2="502.2905" gradientTransform="matrix(0.8937 0.052 -0.052 0.8937 504.0763 -421.5283)">
		<stop  offset="0" style="stop-color:#B08E53"/>
		<stop  offset="1" style="stop-color:#F0C171"/>
	</linearGradient>
	<path fill-rule="evenodd" clip-rule="evenodd" fill="url(#SVGID_1_)" d="M8.277,0.013c4.31,0.251,7.618,3.965,7.367,8.28
		c-0.251,4.309-3.968,7.614-8.277,7.363C3.057,15.405-0.25,11.691,0,7.382C0.251,3.068,3.968-0.238,8.277,0.013L8.277,0.013z"/>
</g>
</svg>
