<?xml version="1.0" encoding="utf-8"?>
<!-- Generator: Adobe Illustrator 15.0.0, SVG Export Plug-In . SVG Version: 6.00 Build 0)  -->
<!DOCTYPE svg PUBLIC "-//W3C//DTD SVG 1.1//EN" "http://www.w3.org/Graphics/SVG/1.1/DTD/svg11.dtd">
<svg version="1.1" id="图层_1" xmlns="http://www.w3.org/2000/svg" xmlns:xlink="http://www.w3.org/1999/xlink" x="0px" y="0px"
	 width="93.647px" height="14.27px" viewBox="0 0 93.647 14.27" enable-background="new 0 0 93.647 14.27" xml:space="preserve">
<g>
	<path fill-rule="evenodd" clip-rule="evenodd" fill="#FAF0BB" d="M87.054,11.307l6.582-3.847l-6.621-3.781
		c-0.248-0.14-0.604-0.265-0.958-0.264L9.401,3.808l-3.044,4.1l3.089,4.071l76.654-0.4C86.456,11.577,86.806,11.449,87.054,11.307
		L87.054,11.307z"/>
	<path fill-rule="evenodd" clip-rule="evenodd" fill="#C49E5C" d="M87.019,3.678l6.617,3.781L6.359,7.909l3.037-4.102l76.657-0.394
		C86.411,3.415,86.768,3.539,87.019,3.678L87.019,3.678z"/>
	<path fill-rule="evenodd" clip-rule="evenodd" fill="#B39054" d="M85.401,5.129L18.233,5.477c-0.256,0-0.49,0.233-0.486,0.493
		l0.02,3.727c0.002,0.26,0.223,0.487,0.492,0.488l67.17-0.346c0.267-0.002,0.489-0.225,0.483-0.495l-0.017-3.725
		C85.895,5.349,85.664,5.127,85.401,5.129L85.401,5.129z"/>
	<path fill-rule="evenodd" clip-rule="evenodd" fill="#FFFFFF" d="M85.115,5.605l-66.588,0.34c-0.211,0.002-0.32,0.11-0.32,0.325
		l0.017,3.121c0,0.218,0.093,0.322,0.323,0.321L85.139,9.37c0.227-0.001,0.317-0.093,0.316-0.326L85.44,5.925
		C85.438,5.691,85.333,5.603,85.115,5.605L85.115,5.605z"/>
	
		<linearGradient id="SVGID_1_" gradientUnits="userSpaceOnUse" x1="-399.3823" y1="485.7373" x2="-416.0018" y2="489.5742" gradientTransform="matrix(-0.3885 0.6147 -0.6147 -0.3885 147.7766 447.9719)">
		<stop  offset="0" style="stop-color:#E0B569"/>
		<stop  offset="1" style="stop-color:#CCA96C"/>
	</linearGradient>
	<path fill-rule="evenodd" clip-rule="evenodd" fill="url(#SVGID_1_)" d="M11.742,11.308c-1.873,2.964-5.815,3.854-8.785,1.979
		C-0.007,11.414-0.89,7.474,0.983,4.51c1.873-2.964,5.81-3.858,8.773-1.985C12.727,4.402,13.615,8.343,11.742,11.308L11.742,11.308z
		"/>
</g>
</svg>
