<?xml version="1.0" encoding="utf-8"?>
<!-- Generator: Adobe Illustrator 15.0.0, SVG Export Plug-In . SVG Version: 6.00 Build 0)  -->
<!DOCTYPE svg PUBLIC "-//W3C//DTD SVG 1.1//EN" "http://www.w3.org/Graphics/SVG/1.1/DTD/svg11.dtd">
<svg version="1.1" id="图层_1" xmlns="http://www.w3.org/2000/svg" xmlns:xlink="http://www.w3.org/1999/xlink" x="0px" y="0px"
	 width="141.486px" height="10.5px" viewBox="0 0 141.486 10.5" enable-background="new 0 0 141.486 10.5" xml:space="preserve">
<g>
	<g>
		<polygon fill-rule="evenodd" clip-rule="evenodd" fill="#EDD5AD" points="141.165,5.144 141.161,6.506 0.373,6.485 0.384,4.215 
			141.165,5.144 		"/>
		<path fill-rule="evenodd" clip-rule="evenodd" fill="#FFF2D1" d="M76.666,4.723c0.527,0.593,1.04,1.185,1.552,1.773L0.372,6.484
			l0.005-2.27L76.666,4.723L76.666,4.723z"/>
		<path fill-rule="evenodd" clip-rule="evenodd" fill="#FFF2D1" d="M40.341,9.452c-2.179-1.874-2.429-5.172-0.553-7.355
			c1.876-2.181,5.177-2.428,7.355-0.555c2.183,1.876,2.432,5.177,0.555,7.359C45.823,11.081,42.523,11.328,40.341,9.452
			L40.341,9.452z"/>
	</g>
	
		<linearGradient id="SVGID_1_" gradientUnits="userSpaceOnUse" x1="397.2668" y1="961.5532" x2="397.2668" y2="978.9292" gradientTransform="matrix(-0.2733 -0.235 0.235 -0.2733 -75.1938 363.9394)">
		<stop  offset="0" style="stop-color:#8C754F"/>
		<stop  offset="1" style="stop-color:#B59866"/>
	</linearGradient>
	<path fill-rule="evenodd" clip-rule="evenodd" fill="url(#SVGID_1_)" d="M42.228,7.733c-1.306-1.123-1.457-3.107-0.331-4.415
		c1.126-1.31,3.109-1.458,4.415-0.335c1.311,1.127,1.462,3.109,0.335,4.418C45.522,8.711,43.539,8.861,42.228,7.733L42.228,7.733z"
		/>
</g>
</svg>
