<?xml version="1.0" encoding="utf-8"?>
<!-- Generator: Adobe Illustrator 15.0.0, SVG Export Plug-In . SVG Version: 6.00 Build 0)  -->
<!DOCTYPE svg PUBLIC "-//W3C//DTD SVG 1.1//EN" "http://www.w3.org/Graphics/SVG/1.1/DTD/svg11.dtd">
<svg version="1.1" id="图层_1" xmlns="http://www.w3.org/2000/svg" xmlns:xlink="http://www.w3.org/1999/xlink" x="0px" y="0px"
	 width="297.728px" height="305.867px" viewBox="0 0 297.728 305.867" enable-background="new 0 0 297.728 305.867"
	 xml:space="preserve">
<linearGradient id="SVGID_1_" gradientUnits="userSpaceOnUse" x1="150.4307" y1="155.6094" x2="150.4307" y2="16.4334">
	<stop  offset="0" style="stop-color:#272727"/>
	<stop  offset="1" style="stop-color:#C1C1C1"/>
</linearGradient>
<path fill-rule="evenodd" clip-rule="evenodd" fill="url(#SVGID_1_)" d="M150.43,154.613c-81.716,0-97.343-44.809-90.777-75.023
	c3.904-17.96,20.604-37.492,36.453-46.948c14.834-8.845,33.757-14.356,54.324-14.356c20.566,0,39.49,5.511,54.326,14.356
	c15.854,9.456,32.545,28.988,36.453,46.948C247.775,109.805,232.145,154.613,150.43,154.613L150.43,154.613z"/>
<g>
	<linearGradient id="SVGID_2_" gradientUnits="userSpaceOnUse" x1="150.4297" y1="154.7031" x2="150.4297" y2="17.3506">
		<stop  offset="0" style="stop-color:#272727"/>
		<stop  offset="1" style="stop-color:#C1C1C1"/>
	</linearGradient>
	<path fill-rule="evenodd" clip-rule="evenodd" fill="url(#SVGID_2_)" d="M150.428,153.72c-80.644,0-96.066-44.222-89.588-74.04
		c3.853-17.727,20.337-37.002,35.979-46.332c14.637-8.728,33.314-14.169,53.608-14.169c20.302,0,38.976,5.441,53.616,14.169
		c15.646,9.33,32.119,28.605,35.976,46.332C246.502,109.498,231.075,153.72,150.428,153.72L150.428,153.72z"/>
	<linearGradient id="SVGID_3_" gradientUnits="userSpaceOnUse" x1="150.4316" y1="86.5771" x2="150.4316" y2="21.1945">
		<stop  offset="0" style="stop-color:#FFF8E8"/>
		<stop  offset="1" style="stop-color:#FFFBF2"/>
	</linearGradient>
	<path fill="url(#SVGID_3_)" d="M107.632,31.85l3.021,6.798l-1.707,0.756l-3.021-6.791L107.632,31.85z M94.72,38.515l6.319,10.947
		l4.105-2.37l-6.323-10.946L94.72,38.515z M116.379,28.498l2.297,7.065l1.771-0.573l-2.293-7.072L116.379,28.498z M127.203,25.491
		l1.544,7.27l1.826-0.385l-1.541-7.273L127.203,25.491z M77.926,51.146l4.973,5.521l1.386-1.246l-4.973-5.531L77.926,51.146z
		 M60.84,79.68c-0.102,0.476-0.198,0.954-0.288,1.437l6.697,3.867l2.373-4.104l-7.904-4.559C61.38,77.443,61.084,78.567,60.84,79.68
		z M64.534,69.021l4.537,3.295l1.098-1.506l-4.807-3.5C65.074,67.884,64.801,68.456,64.534,69.021z M138.286,23.64l0.771,7.389
		l1.858-0.187l-0.771-7.4L138.286,23.64z M70.476,58.687c-0.123,0.177-0.241,0.354-0.36,0.529l5.459,4.912l1.246-1.383l-5.524-4.983
		L70.476,58.687z M86.593,44.007l4.371,6.006l1.505-1.091l-4.363-6.021L86.593,44.007z M195.716,47.092l4.104,2.37l6.319-10.947
		l-4.104-2.369L195.716,47.092z M230.395,58.697l-0.835-0.929l-5.531,4.969l1.25,1.391l5.462-4.915
		C230.625,59.043,230.507,58.87,230.395,58.697z M208.387,48.911l1.509,1.102l4.371-6.014l-1.516-1.098L208.387,48.911z
		 M216.575,55.414l1.379,1.253l4.979-5.523l-1.39-1.25L216.575,55.414z M148.059,35.595h4.738V22.956h-4.738V35.595z
		 M236.322,69.018c-0.264-0.569-0.544-1.138-0.828-1.707l-4.808,3.493l1.095,1.513L236.322,69.018z M240.02,79.68
		c-0.241-1.112-0.543-2.236-0.878-3.367l-7.907,4.566l2.376,4.104l6.701-3.867C240.211,80.634,240.121,80.155,240.02,79.68z
		 M190.203,38.642l1.703,0.763l3.027-6.794l-1.706-0.756L190.203,38.642z M170.283,32.375l1.821,0.389l1.553-7.274l-1.829-0.381
		L170.283,32.375z M159.941,30.834l1.854,0.198l0.781-7.393l-1.858-0.194L159.941,30.834z M180.408,34.983l1.771,0.58l2.305-7.068
		l-1.778-0.576L180.408,34.983z"/>
</g>
</svg>
