<?xml version="1.0" encoding="utf-8"?>
<!-- Generator: Adobe Illustrator 15.0.0, SVG Export Plug-In . SVG Version: 6.00 Build 0)  -->
<!DOCTYPE svg PUBLIC "-//W3C//DTD SVG 1.1//EN" "http://www.w3.org/Graphics/SVG/1.1/DTD/svg11.dtd">
<svg version="1.1" id="图层_1" xmlns="http://www.w3.org/2000/svg" xmlns:xlink="http://www.w3.org/1999/xlink" x="0px" y="0px"
	 width="297.728px" height="305.867px" viewBox="0 0 297.728 305.867" enable-background="new 0 0 297.728 305.867"
	 xml:space="preserve">
<radialGradient id="SVGID_1_" cx="-90.1343" cy="535.71" r="144.7405" gradientTransform="matrix(1.0284 -0.0128 0.0128 1.0284 234.6904 -395.0916)" gradientUnits="userSpaceOnUse">
	<stop  offset="0.736" style="stop-color:#140C00"/>
	<stop  offset="0.9494" style="stop-color:#FFFFFF"/>
</radialGradient>
<path fill-rule="evenodd" clip-rule="evenodd" fill="url(#SVGID_1_)" d="M147.008,8.145
	c81.982-1.022,149.686,65.011,150.708,146.992c1.022,81.992-65.014,149.696-146.997,150.719
	C68.734,306.878,1.033,240.841,0.012,158.849C-1.011,76.867,65.022,9.167,147.008,8.145L147.008,8.145z"/>
<linearGradient id="SVGID_2_" gradientUnits="userSpaceOnUse" x1="-81.6631" y1="661.5654" x2="-81.6631" y2="381.1079" gradientTransform="matrix(0.9999 -0.0125 0.0125 0.9999 223.785 -384.241)">
	<stop  offset="0" style="stop-color:#8A7550"/>
	<stop  offset="0.5" style="stop-color:#D9C39E"/>
	<stop  offset="1" style="stop-color:#E3D1B1"/>
</linearGradient>
<path fill="url(#SVGID_2_)" d="M146.908,0.011c76.053-0.948,138.862,60.309,139.811,136.367s-60.314,138.867-136.367,139.815
	C74.293,277.142,11.487,215.88,10.539,139.821S70.85,0.959,146.908,0.011L146.908,0.011z"/>
<linearGradient id="SVGID_3_" gradientUnits="userSpaceOnUse" x1="-81.6621" y1="656.8584" x2="-81.6621" y2="383.7678" gradientTransform="matrix(0.9999 -0.0125 0.0125 0.9999 223.7968 -383.324)">
	<stop  offset="0" style="stop-color:#EBCC96"/>
	<stop  offset="0.25" style="stop-color:#AD8B51"/>
	<stop  offset="0.32" style="stop-color:#917544"/>
	<stop  offset="0.4" style="stop-color:#876D40"/>
	<stop  offset="0.49" style="stop-color:#9C7E49"/>
	<stop  offset="0.62" style="stop-color:#F0CC8D"/>
	<stop  offset="1" style="stop-color:#FCEED6"/>
</linearGradient>
<path fill="url(#SVGID_3_)" d="M146.952,3.585c74.09-0.924,135.271,58.75,136.194,132.838
	c0.924,74.092-58.75,135.272-132.84,136.195c-74.09,0.924-135.271-58.749-136.194-132.842C13.189,65.688,72.862,4.509,146.952,3.585
	L146.952,3.585z"/>
<linearGradient id="SVGID_4_" gradientUnits="userSpaceOnUse" x1="-81.6641" y1="393.9102" x2="-81.6641" y2="639.2499" gradientTransform="matrix(0.9999 -0.0125 0.0125 0.9999 223.8407 -379.783)">
	<stop  offset="0" style="stop-color:#AD9977"/>
	<stop  offset="0.5" style="stop-color:#E0CAA3"/>
	<stop  offset="1" style="stop-color:#FFEDCF"/>
</linearGradient>
<path fill="url(#SVGID_4_)" d="M147.125,17.385c66.486-0.829,121.387,52.723,122.216,119.21
	c0.829,66.489-52.72,121.394-119.206,122.223c-66.489,0.828-121.394-52.724-122.223-119.213
	C27.083,73.118,80.636,18.213,147.125,17.385L147.125,17.385z"/>
<linearGradient id="SVGID_5_" gradientUnits="userSpaceOnUse" x1="148.8135" y1="19.0229" x2="148.8135" y2="256.8904" gradientTransform="matrix(0.9999 -0.0125 0.0125 0.9999 -1.8952 1.8674)">
	<stop  offset="0" style="stop-color:#000000"/>
	<stop  offset="1" style="stop-color:#424242"/>
</linearGradient>
<path fill-rule="evenodd" clip-rule="evenodd" fill="url(#SVGID_5_)" d="M147.166,20.863
	c64.571-0.805,117.894,51.206,118.698,115.775c0.806,64.569-51.204,117.893-115.775,118.698
	c-64.571,0.805-117.892-51.205-118.696-115.774C30.588,74.991,82.595,21.668,147.166,20.863L147.166,20.863z"/>
</svg>
